<svg xmlns="http://www.w3.org/2000/svg" id="Layer_1" data-name="Layer 1" viewBox="0 0 402.81 400"><defs><style>.cls-1{fill:#b4caed;}.cls-2{fill:#81a1cc;}.cls-3{fill:#fff;}.cls-4{fill:#003552;}.cls-5{fill:#295e87;}.cls-6{fill:#659ec9;}.cls-7{fill:#dae5f8;}.cls-8{fill:#e9f1ff;}.cls-9{fill:#517fa2;}</style></defs><path class="cls-1" d="M312.63,392.64,90.18,264.21V7.36l23.41,23.79L213.17,90.8l99.46,45Z"></path><polygon class="cls-2" points="312.63 392.64 90.18 264.21 91.48 263.46 163.02 287.81 292.67 379.62 312.63 392.64"></polygon><polygon class="cls-3" points="292.67 147.3 195.23 105.05 91.48 31.15 90.18 7.36 312.63 135.79 292.67 147.3"></polygon><path class="cls-4" d="M192.38,305.93c-48.51-28-88-96.36-88-152.36s39.46-78.8,88-50.79,88,96.35,88,152.37S240.88,333.93,192.38,305.93Z"></path><path class="cls-1" d="M96.8,67.26V260.33l183.55,106,2.59-217.86ZM197.71,293c-43.48-25.11-78.86-86.38-78.86-136.58s35.38-70.63,78.86-45.52,78.85,86.37,78.85,136.57S241.18,318.13,197.71,293Z"></path><path class="cls-5" d="M170,108l0,0-2.74,1.6v.57a11.34,11.34,0,0,0-1.15,1.32c-13.92,19.83,12.49,59.78,12.49,59.78s31,21.19,32.54,18.79c6.53-10.06,18.49-6.72,25.41-7.9l.36.49,2.48-1.47a4.87,4.87,0,0,0,2.33-3.45C247.52,147.62,190.43,97.08,170,108Z"></path><path class="cls-6" d="M175.89,172.8s-26.4-40-12.49-59.78C178.86,91,245.23,147,239,179.25c-2,10.26-21.54-1.61-30.58,12.34C206.89,194,175.89,172.8,175.89,172.8Z"></path><path class="cls-5" d="M195,226.61s-13.87-40.19-17.11-41.84c-18.87-9.72-28.73-34.92-38.16-36.33a10.93,10.93,0,0,0-6.85,1L130,151.07l.09.69c-13.54,15.84,6.28,81.8,32.76,96.17,7,3.81,12.58,4.33,16.92,3l.21.3,3.29-1.94C193,243.1,195,226.61,195,226.61Z"></path><path class="cls-6" d="M192.27,228.19s-4.34,36.42-32.18,21.31C129.17,232.73,107.3,145.61,137,150c9.43,1.4,19.29,26.61,38.16,36.32C178.41,188,192.27,228.19,192.27,228.19Z"></path><path class="cls-5" d="M221.31,204.06s30.25-.46,46.69,35c18.28,39.38-22.51,78.82-48.42,42.8-8.23-11.44.12-27-11.42-51-1.65-3.44,6.43-20.5,9.86-25.78C218.69,204,221.31,204.06,221.31,204.06Z"></path><path class="cls-6" d="M218.58,205.63s30.25-.45,46.7,35c18.27,39.37-22.51,78.82-48.44,42.79-8.22-11.43.13-27-11.4-51C203.46,228.31,218.58,205.63,218.58,205.63Z"></path><path class="cls-1" d="M223.23,218.54c0,17.72-12.43,24.9-27.77,16s-27.79-30.4-27.79-48.12,12.44-24.89,27.79-16S223.23,200.82,223.23,218.54Z"></path><polygon class="cls-1" points="176.13 168.31 171.53 170.96 173.56 174.4 179.77 172.17 176.13 168.31"></polygon><polygon class="cls-1" points="210.66 239.07 215.56 236.25 211.99 227.59 207.37 230.31 210.66 239.07"></polygon><path class="cls-7" d="M219.27,220.83c0,17.72-12.44,24.9-27.78,16s-27.78-30.4-27.78-48.12,12.43-24.89,27.78-16S219.27,203.12,219.27,220.83Z"></path><path class="cls-8" d="M91.48,31.15V263.46L292.67,379.62V147.3Zm100.9,265c-43.48-25.1-78.86-86.37-78.86-136.58S148.9,89,192.38,114.06s78.85,86.38,78.85,136.57S235.85,321.26,192.38,296.16Z"></path><path class="cls-9" d="M135.57,70.6,105.13,53c-1.52-.88-2.75-.18-2.77,1.58a6.13,6.13,0,0,0,2.78,4.77L135.57,77c1.54.89,2.75.18,2.78-1.58,0,0,0-.06,0-.09A6.18,6.18,0,0,0,135.57,70.6Z"></path><polygon class="cls-3" points="164.8 96.26 164.11 96.66 169.23 100.88 218.94 129.58 226.25 132.54 226.94 132.14 164.8 96.26"></polygon><polygon class="cls-8" points="218.94 131.66 169.23 102.95 169.23 100.88 218.94 129.58 218.94 131.66"></polygon><polygon class="cls-7" points="226.25 134.62 218.94 131.66 218.94 129.58 226.25 132.54 226.25 134.62"></polygon><polygon class="cls-7" points="169.23 102.95 164.11 98.74 164.11 96.66 169.23 100.88 169.23 102.95"></polygon><polygon class="cls-1" points="226.94 134.22 226.25 134.62 226.25 132.54 226.94 132.14 226.94 134.22"></polygon><polygon class="cls-3" points="149.24 96.39 148.54 96.79 153.67 101 233.91 147.33 241.22 150.29 241.91 149.89 149.24 96.39"></polygon><polygon class="cls-8" points="233.91 149.41 153.67 103.08 153.67 101 233.91 147.33 233.91 149.41"></polygon><polygon class="cls-7" points="241.22 152.38 233.91 149.41 233.91 147.33 241.22 150.29 241.22 152.38"></polygon><polygon class="cls-7" points="153.67 103.08 148.54 98.87 148.54 96.79 153.67 101 153.67 103.08"></polygon><polygon class="cls-1" points="241.91 151.97 241.22 152.38 241.22 150.29 241.91 149.89 241.91 151.97"></polygon><polygon class="cls-3" points="138.48 99.28 137.79 99.69 142.91 103.91 243.98 162.25 251.28 165.21 251.97 164.81 138.48 99.28"></polygon><polygon class="cls-8" points="243.98 164.33 142.91 105.98 142.91 103.91 243.98 162.25 243.98 164.33"></polygon><polygon class="cls-7" points="251.28 167.29 243.98 164.33 243.98 162.25 251.28 165.21 251.28 167.29"></polygon><polygon class="cls-7" points="142.91 105.98 137.79 101.76 137.79 99.69 142.91 103.91 142.91 105.98"></polygon><polygon class="cls-1" points="251.97 166.9 251.28 167.29 251.28 165.21 251.97 164.81 251.97 166.9"></polygon><polygon class="cls-3" points="130.24 103.64 129.55 104.04 134.67 108.26 251.52 175.72 258.82 178.68 259.52 178.27 130.24 103.64"></polygon><polygon class="cls-8" points="251.52 177.8 134.67 110.34 134.67 108.26 251.52 175.72 251.52 177.8"></polygon><polygon class="cls-7" points="258.82 180.76 251.52 177.8 251.52 175.72 258.82 178.68 258.82 180.76"></polygon><polygon class="cls-7" points="134.67 110.34 129.55 106.12 129.55 104.04 134.67 108.26 134.67 110.34"></polygon><polygon class="cls-1" points="259.52 180.36 258.82 180.76 258.82 178.68 259.52 178.27 259.52 180.36"></polygon><polygon class="cls-3" points="123.67 108.96 122.98 109.36 128.1 113.57 257.37 188.2 264.67 191.16 265.36 190.76 123.67 108.96"></polygon><polygon class="cls-8" points="257.37 190.28 128.1 115.65 128.1 113.57 257.37 188.2 257.37 190.28"></polygon><polygon class="cls-7" points="264.67 193.25 257.37 190.28 257.37 188.2 264.67 191.16 264.67 193.25"></polygon><polygon class="cls-7" points="128.1 115.65 122.98 111.44 122.98 109.36 128.1 113.57 128.1 115.65"></polygon><polygon class="cls-1" points="265.36 192.85 264.67 193.25 264.67 191.16 265.36 190.76 265.36 192.85"></polygon><polygon class="cls-3" points="118.49 115.07 117.79 115.47 122.92 119.69 261.93 199.94 269.23 202.9 269.93 202.5 118.49 115.07"></polygon><polygon class="cls-8" points="261.93 202.03 122.92 121.77 122.92 119.69 261.93 199.94 261.93 202.03"></polygon><polygon class="cls-7" points="269.23 204.99 261.93 202.03 261.93 199.94 269.23 202.9 269.23 204.99"></polygon><polygon class="cls-7" points="122.92 121.77 117.79 117.55 117.79 115.47 122.92 119.69 122.92 121.77"></polygon><polygon class="cls-1" points="269.93 204.59 269.23 204.99 269.23 202.9 269.93 202.5 269.93 204.59"></polygon><polygon class="cls-3" points="114.28 121.76 113.59 122.16 118.72 126.38 265.42 211.08 272.73 214.04 273.42 213.63 114.28 121.76"></polygon><polygon class="cls-8" points="265.42 213.16 118.72 128.45 118.72 126.38 265.42 211.08 265.42 213.16"></polygon><polygon class="cls-7" points="272.73 216.12 265.42 213.16 265.42 211.08 272.73 214.04 272.73 216.12"></polygon><polygon class="cls-7" points="118.72 128.45 113.59 124.24 113.59 122.16 118.72 126.38 118.72 128.45"></polygon><polygon class="cls-1" points="273.42 215.71 272.73 216.12 272.73 214.04 273.42 213.63 273.42 215.71"></polygon><polygon class="cls-3" points="111.06 129.01 110.37 129.41 115.49 133.63 267.98 221.66 275.29 224.62 275.98 224.22 111.06 129.01"></polygon><polygon class="cls-8" points="267.98 223.74 115.49 135.7 115.49 133.63 267.98 221.66 267.98 223.74"></polygon><polygon class="cls-7" points="275.29 226.71 267.98 223.74 267.98 221.66 275.29 224.62 275.29 226.71"></polygon><polygon class="cls-7" points="115.49 135.7 110.37 131.48 110.37 129.41 115.49 133.63 115.49 135.7"></polygon><polygon class="cls-1" points="275.98 226.3 275.29 226.71 275.29 224.62 275.98 224.22 275.98 226.3"></polygon><polygon class="cls-3" points="108.66 136.73 107.97 137.13 113.1 141.35 269.69 231.76 277 234.72 277.69 234.32 108.66 136.73"></polygon><polygon class="cls-8" points="269.69 233.84 113.1 143.43 113.1 141.35 269.69 231.76 269.69 233.84"></polygon><polygon class="cls-7" points="277 236.8 269.69 233.84 269.69 231.76 277 234.72 277 236.8"></polygon><polygon class="cls-7" points="113.1 143.43 107.97 139.22 107.97 137.13 113.1 141.35 113.1 143.43"></polygon><polygon class="cls-1" points="277.69 236.4 277 236.8 277 234.72 277.69 234.32 277.69 236.4"></polygon><polygon class="cls-3" points="106.61 171.99 105.92 172.38 111.05 176.6 268.88 267.73 276.18 270.69 276.88 270.28 106.61 171.99"></polygon><polygon class="cls-8" points="268.88 269.81 111.05 178.69 111.05 176.6 268.88 267.73 268.88 269.81"></polygon><polygon class="cls-7" points="276.18 272.77 268.88 269.81 268.88 267.73 276.18 270.69 276.18 272.77"></polygon><polygon class="cls-7" points="111.05 178.69 105.92 174.47 105.92 172.38 111.05 176.6 111.05 178.69"></polygon><polygon class="cls-1" points="276.88 272.37 276.18 272.77 276.18 270.69 276.88 270.28 276.88 272.37"></polygon><polygon class="cls-3" points="108 181.9 107.3 182.3 112.43 186.52 266.76 275.63 274.07 278.58 274.76 278.19 108 181.9"></polygon><polygon class="cls-8" points="266.76 277.7 112.43 188.59 112.43 186.52 266.76 275.63 266.76 277.7"></polygon><polygon class="cls-7" points="274.07 280.66 266.76 277.7 266.76 275.63 274.07 278.58 274.07 280.66"></polygon><polygon class="cls-7" points="112.43 188.59 107.3 184.38 107.3 182.3 112.43 186.52 112.43 188.59"></polygon><polygon class="cls-1" points="274.76 280.26 274.07 280.66 274.07 278.58 274.76 278.19 274.76 280.26"></polygon><polygon class="cls-3" points="110.2 192.28 109.51 192.69 114.64 196.91 263.84 283.05 271.15 286.01 271.84 285.61 110.2 192.28"></polygon><polygon class="cls-8" points="263.84 285.13 114.64 198.98 114.64 196.91 263.84 283.05 263.84 285.13"></polygon><polygon class="cls-7" points="271.15 288.09 263.84 285.13 263.84 283.05 271.15 286.01 271.15 288.09"></polygon><polygon class="cls-7" points="114.64 198.98 109.51 194.77 109.51 192.69 114.64 196.91 114.64 198.98"></polygon><polygon class="cls-1" points="271.84 287.69 271.15 288.09 271.15 286.01 271.84 285.61 271.84 287.69"></polygon><polygon class="cls-3" points="113.31 203.19 112.62 203.59 117.75 207.8 260.11 290 267.41 292.96 268.11 292.56 113.31 203.19"></polygon><polygon class="cls-8" points="260.11 292.08 117.75 209.89 117.75 207.8 260.11 290 260.11 292.08"></polygon><polygon class="cls-7" points="267.41 295.04 260.11 292.08 260.11 290 267.41 292.96 267.41 295.04"></polygon><polygon class="cls-7" points="117.75 209.89 112.62 205.67 112.62 203.59 117.75 207.8 117.75 209.89"></polygon><polygon class="cls-1" points="268.11 294.64 267.41 295.04 267.41 292.96 268.11 292.56 268.11 294.64"></polygon><polygon class="cls-3" points="117.42 214.67 116.72 215.07 121.85 219.29 255.27 296.32 262.57 299.28 263.27 298.88 117.42 214.67"></polygon><polygon class="cls-8" points="255.27 298.4 121.85 221.37 121.85 219.29 255.27 296.32 255.27 298.4"></polygon><polygon class="cls-7" points="262.57 301.36 255.27 298.4 255.27 296.32 262.57 299.28 262.57 301.36"></polygon><polygon class="cls-7" points="121.85 221.37 116.72 217.15 116.72 215.07 121.85 219.29 121.85 221.37"></polygon><polygon class="cls-1" points="263.27 300.96 262.57 301.36 262.57 299.28 263.27 298.88 263.27 300.96"></polygon><polygon class="cls-3" points="150.91 270.45 150.21 270.85 155.34 275.07 219.17 311.91 226.47 314.88 227.16 314.47 150.91 270.45"></polygon><polygon class="cls-8" points="219.17 314 155.34 277.14 155.34 275.07 219.17 311.91 219.17 314"></polygon><polygon class="cls-7" points="226.47 316.95 219.17 314 219.17 311.91 226.47 314.88 226.47 316.95"></polygon><polygon class="cls-7" points="155.34 277.14 150.21 272.93 150.21 270.85 155.34 275.07 155.34 277.14"></polygon><polygon class="cls-1" points="227.16 316.56 226.47 316.95 226.47 314.88 227.16 314.47 227.16 316.56"></polygon><polygon class="cls-3" points="138.43 254.14 137.74 254.54 142.87 258.75 232.23 310.35 239.53 313.31 240.23 312.91 138.43 254.14"></polygon><polygon class="cls-8" points="232.23 312.43 142.87 260.83 142.87 258.75 232.23 310.35 232.23 312.43"></polygon><polygon class="cls-7" points="239.53 315.39 232.23 312.43 232.23 310.35 239.53 313.31 239.53 315.39"></polygon><polygon class="cls-7" points="142.87 260.83 137.74 256.62 137.74 254.54 142.87 258.75 142.87 260.83"></polygon><polygon class="cls-1" points="240.23 314.99 239.53 315.39 239.53 313.31 240.23 312.91 240.23 314.99"></polygon><polygon class="cls-3" points="129.53 239.89 128.84 240.28 133.96 244.5 241.83 306.78 249.13 309.74 249.83 309.34 129.53 239.89"></polygon><polygon class="cls-8" points="241.83 308.86 133.96 246.58 133.96 244.5 241.83 306.78 241.83 308.86"></polygon><polygon class="cls-7" points="249.13 311.82 241.83 308.86 241.83 306.78 249.13 309.74 249.13 311.82"></polygon><polygon class="cls-7" points="133.96 246.58 128.84 242.36 128.84 240.28 133.96 244.5 133.96 246.58"></polygon><polygon class="cls-1" points="249.83 311.43 249.13 311.82 249.13 309.74 249.83 309.34 249.83 311.43"></polygon><polygon class="cls-3" points="122.71 226.84 122.02 227.24 127.15 231.46 249.36 302.01 256.66 304.97 257.36 304.57 122.71 226.84"></polygon><polygon class="cls-8" points="249.36 304.1 127.15 233.54 127.15 231.46 249.36 302.01 249.36 304.1"></polygon><polygon class="cls-7" points="256.66 307.06 249.36 304.1 249.36 302.01 256.66 304.97 256.66 307.06"></polygon><polygon class="cls-7" points="127.15 233.54 122.02 229.31 122.02 227.24 127.15 231.46 127.15 233.54"></polygon><polygon class="cls-1" points="257.36 306.66 256.66 307.06 256.66 304.97 257.36 304.57 257.36 306.66"></polygon><polygon class="cls-3" points="107 144.88 106.31 145.29 111.44 149.5 270.61 241.4 277.91 244.36 278.61 243.96 107 144.88"></polygon><polygon class="cls-8" points="270.61 243.48 111.44 151.58 111.44 149.5 270.61 241.4 270.61 243.48"></polygon><polygon class="cls-7" points="277.91 246.44 270.61 243.48 270.61 241.4 277.91 244.36 277.91 246.44"></polygon><polygon class="cls-7" points="111.44 151.58 106.31 147.37 106.31 145.29 111.44 149.5 111.44 151.58"></polygon><polygon class="cls-1" points="278.61 246.04 277.91 246.44 277.91 244.36 278.61 243.96 278.61 246.04"></polygon><polygon class="cls-3" points="106.13 153.49 105.44 153.89 110.56 158.11 270.74 250.59 278.05 253.55 278.74 253.15 106.13 153.49"></polygon><polygon class="cls-8" points="270.74 252.67 110.56 160.19 110.56 158.11 270.74 250.59 270.74 252.67"></polygon><polygon class="cls-7" points="278.05 255.63 270.74 252.67 270.74 250.59 278.05 253.55 278.05 255.63"></polygon><polygon class="cls-7" points="110.56 160.19 105.44 155.97 105.44 153.89 110.56 158.11 110.56 160.19"></polygon><polygon class="cls-1" points="278.74 255.23 278.05 255.63 278.05 253.55 278.74 253.15 278.74 255.23"></polygon><polygon class="cls-3" points="106 162.52 105.3 162.92 110.43 167.14 270.16 259.36 277.47 262.33 278.16 261.93 106 162.52"></polygon><polygon class="cls-8" points="270.16 261.45 110.43 169.22 110.43 167.14 270.16 259.36 270.16 261.45"></polygon><polygon class="cls-7" points="277.47 264.41 270.16 261.45 270.16 259.36 277.47 262.33 277.47 264.41"></polygon><polygon class="cls-7" points="110.43 169.22 105.3 165 105.3 162.92 110.43 167.14 110.43 169.22"></polygon><polygon class="cls-1" points="278.16 264.01 277.47 264.41 277.47 262.33 278.16 261.93 278.16 264.01"></polygon></svg>