<svg xmlns="http://www.w3.org/2000/svg" id="Layer_1" data-name="Layer 1" viewBox="0 0 500 500"><defs><style>.cls-1{fill:#dae5f8;}.cls-2{fill:#b4caed;}.cls-3{fill:#003552;}.cls-4{fill:#fff;}.cls-5{fill:#517fa2;}</style></defs><path class="cls-1" d="M400.61,416.79,69.54,225.64c-21.73-35-20.94-90.81-20.94-90.81L379.67,326Z"></path><path class="cls-2" d="M451.4,387.46l-50.79,29.33C378.89,381.74,379.67,326,379.67,326l71.73-41.42Z"></path><path class="cls-3" d="M372.45,375.65,71.88,202.11c.62,1.67,1.29,3.31,2,4.93L373.4,380C373.06,378.53,372.75,377.08,372.45,375.65Z"></path><path class="cls-3" d="M66.44,183.54c.33,1.46.69,2.93,1.07,4.41L370.15,362.68c-.21-1.4-.41-2.78-.58-4.13Z"></path><path class="cls-3" d="M367.65,338.08c-.09-1.8-.16-3.45-.21-4.91L62.15,156.92c.17,1.64.36,3.36.58,5.11Z"></path><path class="cls-3" d="M68.78,192.6c.44,1.55.91,3.08,1.41,4.61l301.39,174c-.27-1.42-.51-2.83-.75-4.22Z"></path><path class="cls-3" d="M76.3,212.38c.71,1.42,1.43,2.82,2.2,4.18L375.39,388c-.3-1.14-.6-2.28-.89-3.42Z"></path><path class="cls-3" d="M63.29,166.28c.18,1.36.4,2.74.62,4.15L368.22,346.12c-.12-1.38-.22-2.69-.31-4Z"></path><path class="cls-3" d="M64.64,174.78c.26,1.41.53,2.83.82,4.27L369,354.32c-.16-1.38-.3-2.73-.43-4Z"></path><polygon class="cls-4" points="379.67 325.98 48.6 134.83 120.33 93.42 451.4 284.56 379.67 325.98"></polygon><polygon class="cls-4" points="445.25 267.23 402.54 294.94 83.81 107.86 126.52 83.21 445.25 267.23"></polygon><polygon class="cls-2" points="445.25 280.99 385.86 315.27 402.54 291.88 445.25 267.23 445.25 280.99"></polygon><polygon class="cls-1" points="385.86 315.27 67.13 131.26 83.81 107.86 402.54 291.88 385.86 315.27"></polygon><path class="cls-5" d="M332,262.29a5.57,5.57,0,0,0-7.2,1.3,4.4,4.4,0,0,0,1.68,6.43l37.7,21.77a5.6,5.6,0,0,0,7.21-1.3,4.43,4.43,0,0,0-1.69-6.43Z"></path></svg>