<svg xmlns="http://www.w3.org/2000/svg" id="Layer_1" data-name="Layer 1" viewBox="0 0 500 500"><defs><style>.cls-1{opacity:0.3;}.cls-2{fill:#b4caed;}.cls-3{fill:#e9f1ff;}.cls-4{fill:#003552;}.cls-5{fill:#dae5f8;}.cls-6{fill:#fff;}.cls-7{fill:#bcd3f7;}.cls-8{fill:#295e87;}.cls-9{fill:#659ec9;}.cls-10{fill:#517fa2;}</style></defs><polygon class="cls-1" points="326.01 450 78.35 307.01 173.99 251.79 421.65 394.78 326.01 450"></polygon><path class="cls-2" d="M329.55,372c-4.57-2.64-12-2.64-16.58,0l-61.88,38.35h-3.5v2.52h0c.12,1.63,1.23,3.24,3.38,4.49,4.57,2.64,12,2.64,16.58,0l62-35.78C334.13,378.91,334.13,374.61,329.55,372Z"></path><path class="cls-3" d="M329.55,369.45c-4.57-2.64-12-2.64-16.58,0l-62,35.78c-4.58,2.65-4.58,6.94,0,9.58s12,2.64,16.58,0l62-35.78C334.13,376.39,334.13,372.1,329.55,369.45Z"></path><path class="cls-2" d="M202.11,298.39c-4.57-2.64-12-2.64-16.58,0l-61.89,38.35h-3.49v2.09a1.13,1.13,0,0,0,0,.26v.17h0c.12,1.63,1.22,3.25,3.38,4.49,4.57,2.64,12,2.64,16.58,0l62-35.78C206.69,305.33,206.69,301,202.11,298.39Z"></path><path class="cls-3" d="M202.11,295.88c-4.57-2.65-12-2.65-16.58,0l-62,35.77c-4.58,2.65-4.58,6.94,0,9.58s12,2.64,16.58,0l62-35.78C206.69,302.81,206.69,298.52,202.11,295.88Z"></path><polygon class="cls-2" points="421.65 384.84 326.01 440.06 314.49 297.45 326.01 248.21 421.65 192.99 421.65 384.84"></polygon><path class="cls-4" d="M335.77,386.28c0,.47.33.65.72.42l22.34-12.9a1.55,1.55,0,0,0,.72-1.26c0-.46-.32-.64-.72-.41L336.49,385A1.62,1.62,0,0,0,335.77,386.28Z"></path><path class="cls-4" d="M335.77,380.52c0,.46.33.64.72.41L358.83,368a1.57,1.57,0,0,0,.72-1.26c0-.46-.32-.65-.72-.42l-22.34,12.9A1.62,1.62,0,0,0,335.77,380.52Z"></path><path class="cls-4" d="M335.77,374.75c0,.45.33.65.72.41l22.34-12.89a1.61,1.61,0,0,0,.72-1.25c0-.47-.32-.66-.72-.42l-22.34,12.89A1.62,1.62,0,0,0,335.77,374.75Z"></path><path class="cls-4" d="M335.77,369c0,.46.33.65.72.42l22.34-12.89a1.63,1.63,0,0,0,.72-1.27c0-.46-.32-.65-.72-.41l-22.34,12.9A1.59,1.59,0,0,0,335.77,369Z"></path><path class="cls-4" d="M335.77,363.21c0,.47.33.65.72.42l22.34-12.89a1.58,1.58,0,0,0,.72-1.27c0-.46-.32-.64-.72-.41L336.49,362A1.61,1.61,0,0,0,335.77,363.21Z"></path><path class="cls-4" d="M362.38,370.91c0,.47.33.65.73.42l22.34-12.89a1.59,1.59,0,0,0,.72-1.26c0-.46-.32-.65-.72-.41l-22.34,12.89A1.6,1.6,0,0,0,362.38,370.91Z"></path><path class="cls-4" d="M362.38,365.15c0,.46.33.65.73.41l22.33-12.89a1.58,1.58,0,0,0,.73-1.26c0-.45-.32-.65-.73-.41l-22.33,12.89A1.62,1.62,0,0,0,362.38,365.15Z"></path><path class="cls-4" d="M362.38,359.38c0,.46.33.65.73.42l22.33-12.89a1.61,1.61,0,0,0,.73-1.26c0-.46-.32-.65-.72-.42l-22.34,12.89A1.63,1.63,0,0,0,362.38,359.38Z"></path><path class="cls-4" d="M362.38,353.61c0,.47.33.65.73.43l22.34-12.9a1.57,1.57,0,0,0,.71-1.26c0-.46-.32-.65-.71-.42l-22.34,12.9A1.6,1.6,0,0,0,362.38,353.61Z"></path><path class="cls-4" d="M362.38,347.84c0,.47.33.65.73.43l22.33-12.89a1.64,1.64,0,0,0,.73-1.27c0-.46-.33-.65-.73-.41l-22.33,12.89A1.57,1.57,0,0,0,362.38,347.84Z"></path><path class="cls-4" d="M389.17,355.45c0,.46.33.65.73.42L412.23,343a1.61,1.61,0,0,0,.73-1.27c0-.45-.33-.64-.73-.41L389.9,354.2A1.6,1.6,0,0,0,389.17,355.45Z"></path><path class="cls-4" d="M389.17,349.69c0,.45.33.64.73.42l22.33-12.9A1.6,1.6,0,0,0,413,336c0-.46-.33-.64-.73-.42l-22.33,12.9A1.6,1.6,0,0,0,389.17,349.69Z"></path><path class="cls-4" d="M389.17,343.92a.45.45,0,0,0,.73.42l22.33-12.9a1.62,1.62,0,0,0,.73-1.25c0-.47-.33-.66-.73-.42L389.9,342.66A1.62,1.62,0,0,0,389.17,343.92Z"></path><path class="cls-4" d="M389.17,338.15c0,.46.33.65.73.42l22.33-12.89a1.58,1.58,0,0,0,.72-1.26c0-.47-.32-.66-.72-.43L389.9,336.9A1.58,1.58,0,0,0,389.17,338.15Z"></path><path class="cls-4" d="M389.17,332.38c0,.47.33.65.73.42l22.33-12.89a1.6,1.6,0,0,0,.73-1.26c0-.46-.33-.65-.73-.42L389.9,331.12A1.59,1.59,0,0,0,389.17,332.38Z"></path><path class="cls-4" d="M335.77,418.22c0,.47.33.65.72.42l22.34-12.89a1.57,1.57,0,0,0,.72-1.26c0-.46-.32-.65-.72-.42L336.49,417A1.62,1.62,0,0,0,335.77,418.22Z"></path><path class="cls-4" d="M335.77,412.46c0,.46.33.65.72.42L358.83,400a1.56,1.56,0,0,0,.72-1.25c0-.46-.32-.65-.72-.42L336.49,411.2A1.64,1.64,0,0,0,335.77,412.46Z"></path><path class="cls-4" d="M335.77,406.69c0,.46.33.66.72.42l22.34-12.89a1.62,1.62,0,0,0,.72-1.26c0-.47-.32-.66-.72-.42l-22.34,12.89A1.65,1.65,0,0,0,335.77,406.69Z"></path><path class="cls-4" d="M335.77,400.92c0,.46.33.66.72.43l22.34-12.9a1.61,1.61,0,0,0,.72-1.26c0-.47-.32-.65-.72-.42l-22.34,12.9A1.62,1.62,0,0,0,335.77,400.92Z"></path><path class="cls-4" d="M335.77,395.16c0,.46.33.65.72.42l22.34-12.9a1.57,1.57,0,0,0,.72-1.26c0-.46-.32-.65-.72-.42l-22.34,12.89A1.63,1.63,0,0,0,335.77,395.16Z"></path><path class="cls-4" d="M362.38,402.86c0,.46.33.65.73.42l22.34-12.9a1.59,1.59,0,0,0,.72-1.25c0-.47-.32-.65-.72-.42L363.11,401.6A1.63,1.63,0,0,0,362.38,402.86Z"></path><path class="cls-4" d="M362.38,397.09c0,.46.33.65.73.42l22.33-12.89a1.61,1.61,0,0,0,.73-1.26c0-.46-.32-.65-.73-.42l-22.33,12.89A1.63,1.63,0,0,0,362.38,397.09Z"></path><path class="cls-4" d="M362.38,391.33c0,.45.33.65.73.41l22.33-12.89a1.59,1.59,0,0,0,.73-1.25c0-.47-.32-.66-.72-.42l-22.34,12.89A1.62,1.62,0,0,0,362.38,391.33Z"></path><path class="cls-4" d="M362.38,385.56c0,.46.33.65.73.42l22.34-12.9a1.55,1.55,0,0,0,.71-1.25c0-.47-.32-.66-.71-.43l-22.34,12.9A1.62,1.62,0,0,0,362.38,385.56Z"></path><path class="cls-4" d="M362.38,379.79c0,.47.33.65.73.42l22.33-12.9a1.6,1.6,0,0,0,.73-1.25c0-.46-.33-.65-.73-.42l-22.33,12.89A1.58,1.58,0,0,0,362.38,379.79Z"></path><path class="cls-4" d="M389.17,387.39c0,.47.33.65.73.42l22.33-12.89a1.6,1.6,0,0,0,.73-1.26c0-.46-.33-.65-.73-.41L389.9,386.14A1.6,1.6,0,0,0,389.17,387.39Z"></path><path class="cls-4" d="M389.17,381.63c0,.46.33.65.73.42l22.33-12.9a1.6,1.6,0,0,0,.73-1.25c0-.46-.33-.65-.73-.42l-22.33,12.9A1.57,1.57,0,0,0,389.17,381.63Z"></path><path class="cls-4" d="M389.17,375.86c0,.46.33.65.73.42l22.33-12.89a1.63,1.63,0,0,0,.73-1.26c0-.46-.33-.65-.73-.42L389.9,374.6A1.63,1.63,0,0,0,389.17,375.86Z"></path><path class="cls-4" d="M389.17,370.1c0,.45.33.64.73.42l22.33-12.9a1.58,1.58,0,0,0,.72-1.26c0-.46-.32-.65-.72-.42l-22.33,12.9A1.6,1.6,0,0,0,389.17,370.1Z"></path><path class="cls-4" d="M389.17,364.33c0,.46.33.64.73.42l22.33-12.89a1.64,1.64,0,0,0,.73-1.27c0-.46-.33-.65-.73-.42l-22.33,12.9A1.58,1.58,0,0,0,389.17,364.33Z"></path><polygon class="cls-5" points="326.01 248.21 150.37 186.88 78.35 105.22 173.99 50 421.65 192.99 326.01 248.21"></polygon><polygon class="cls-6" points="326.01 440.06 78.36 297.07 78.35 105.22 326.01 248.21 326.01 440.06"></polygon><polygon class="cls-5" points="368.75 334.47 358.94 328.82 358.94 265.64 368.75 271.29 374.49 288.94 368.75 334.47"></polygon><polygon class="cls-6" points="368.75 271.29 358.94 265.64 391.13 246.95 400.94 252.61 368.75 271.29"></polygon><polygon class="cls-7" points="400.94 315.81 368.75 334.47 368.75 271.29 400.94 252.61 400.94 315.81"></polygon><polygon class="cls-2" points="237.21 372.66 237.21 379.13 87.39 292.65 87.39 119.67 93.02 122.9 93.02 289.41 237.21 372.66"></polygon><polygon class="cls-5" points="237.21 206.15 237.21 372.66 93.02 289.41 93.02 122.9 237.21 206.15"></polygon><path class="cls-5" d="M213.05,324.47c-11.82,8.26-28.91,7.86-47.92-3.11-35.7-20.61-64.65-70.72-64.65-111.93,0-21.88,8.19-36.89,21.21-43-10.54,7.14-17,21.16-17,40.56,0,41.21,28.95,91.32,64.6,111.93C186.18,328.66,201.55,330.06,213.05,324.47Z"></path><path class="cls-4" d="M229.74,284.06c0,19.17-6.27,33.06-16.57,40.33,0,.08-.08.08-.12.08-11.5,5.59-26.87,4.19-43.73-5.55-35.65-20.61-64.6-70.72-64.6-111.93,0-19.4,6.43-33.42,17-40.56l0,0c11.46-5.4,26.71-3.92,43.4,5.71C200.83,192.7,229.74,242.85,229.74,284.06Z"></path><path class="cls-8" d="M144.54,170.3l0,0-2.21,1.28V172a9.64,9.64,0,0,0-.93,1.07c-11.22,16,10.08,48.21,10.08,48.21s25,17.09,26.24,15.15c5.26-8.11,14.9-5.42,20.49-6.37l.29.4,2-1.19a3.91,3.91,0,0,0,1.88-2.79C207,202.25,161,161.5,144.54,170.3Z"></path><path class="cls-9" d="M149.26,222.56s-21.3-32.22-10.08-48.21c12.46-17.75,66,27.38,61,53.42-1.59,8.26-17.36-1.31-24.66,9.95C174.25,239.64,149.26,222.56,149.26,222.56Z"></path><path class="cls-8" d="M164.66,266s-11.18-32.41-13.79-33.75c-15.22-7.83-23.17-28.16-30.77-29.29a8.83,8.83,0,0,0-5.53.78L112.21,205l.08.55c-10.92,12.78,5.06,66,26.42,77.55,5.68,3.08,10.14,3.5,13.64,2.42l.17.24,2.65-1.56C163.06,279.26,164.66,266,164.66,266Z"></path><path class="cls-9" d="M162.46,267.23s-3.5,29.37-26,17.19C111.58,270.89,94,200.64,117.9,204.19c7.6,1.13,15.56,21.46,30.77,29.29C151.28,234.82,162.46,267.23,162.46,267.23Z"></path><path class="cls-8" d="M185.88,247.76s24.39-.36,37.65,28.22c14.74,31.75-18.15,63.56-39.05,34.51-6.63-9.22.1-21.81-9.2-41.12-1.33-2.78,5.19-16.53,7.95-20.8C183.77,247.73,185.88,247.76,185.88,247.76Z"></path><path class="cls-9" d="M183.69,249s24.39-.36,37.65,28.23c14.73,31.74-18.15,63.56-39.06,34.5-6.63-9.22.1-21.8-9.2-41.13C171.49,267.32,183.69,249,183.69,249Z"></path><path class="cls-2" d="M187.44,259.45c0,14.28-10,20.08-22.41,12.93s-22.4-24.51-22.4-38.79,10-20.08,22.4-12.94S187.43,245.16,187.44,259.45Z"></path><polygon class="cls-2" points="149.44 218.94 145.74 221.08 147.37 223.85 152.39 222.05 149.44 218.94"></polygon><polygon class="cls-2" points="177.3 276 181.25 273.73 178.37 266.75 174.64 268.94 177.3 276"></polygon><path class="cls-6" d="M184.24,261.29c0,14.29-10,20.08-22.41,12.94s-22.4-24.51-22.4-38.8,10-20.07,22.4-12.93S184.23,247,184.24,261.29Z"></path><path class="cls-2" d="M95.27,124.91V294.43a.52.52,0,0,0,.3.42,1.57,1.57,0,0,0,1.43,0,.53.53,0,0,0,.29-.42V126.08Z"></path><path class="cls-2" d="M102.94,129.34V298.86a.49.49,0,0,0,.3.41,1.55,1.55,0,0,0,1.42,0,.49.49,0,0,0,.31-.41V130.5Z"></path><path class="cls-2" d="M110.61,133.77V303.29a.49.49,0,0,0,.3.41,1.57,1.57,0,0,0,1.43,0,.5.5,0,0,0,.29-.41V134.93Z"></path><path class="cls-2" d="M118.28,138.19V307.72a.5.5,0,0,0,.29.41,1.59,1.59,0,0,0,1.44,0,.48.48,0,0,0,.29-.41V139.36Z"></path><path class="cls-2" d="M126,142.62V312.15a.51.51,0,0,0,.29.41,1.65,1.65,0,0,0,1.44,0,.49.49,0,0,0,.29-.41V143.79Z"></path><path class="cls-2" d="M133.62,147.05V316.57a.5.5,0,0,0,.29.41,1.59,1.59,0,0,0,1.44,0,.48.48,0,0,0,.29-.41V148.22Z"></path><path class="cls-2" d="M141.29,151.47V321a.52.52,0,0,0,.3.42,1.63,1.63,0,0,0,1.43,0,.53.53,0,0,0,.29-.42V152.65Z"></path><path class="cls-2" d="M149,155.91V325.43a.52.52,0,0,0,.3.42,1.63,1.63,0,0,0,1.43,0,.51.51,0,0,0,.29-.42V157.08Z"></path><path class="cls-2" d="M156.63,160.33V329.86a.49.49,0,0,0,.3.41,1.57,1.57,0,0,0,1.43,0,.48.48,0,0,0,.29-.41V161.5Z"></path><path class="cls-2" d="M164.3,164.76V334.28a.51.51,0,0,0,.29.42,1.57,1.57,0,0,0,1.43,0,.52.52,0,0,0,.3-.42V165.93Z"></path><path class="cls-2" d="M172,169.19V338.72a.5.5,0,0,0,.29.41,1.63,1.63,0,0,0,1.43,0,.52.52,0,0,0,.3-.41V170.35Z"></path><path class="cls-2" d="M179.64,173.61V343.14a.48.48,0,0,0,.29.41,1.57,1.57,0,0,0,1.43,0,.49.49,0,0,0,.3-.41V174.78Z"></path><path class="cls-2" d="M187.31,178V347.57a.5.5,0,0,0,.29.41,1.57,1.57,0,0,0,1.43,0,.47.47,0,0,0,.3-.41V179.21Z"></path><path class="cls-2" d="M195,182.47V352a.51.51,0,0,0,.3.41,1.57,1.57,0,0,0,1.43,0,.49.49,0,0,0,.3-.41V183.64Z"></path><path class="cls-2" d="M202.65,186.9V356.43a.5.5,0,0,0,.29.41,1.57,1.57,0,0,0,1.43,0,.49.49,0,0,0,.3-.41V188.07Z"></path><path class="cls-2" d="M210.32,191.33V360.85a.51.51,0,0,0,.29.42,1.59,1.59,0,0,0,1.44,0,.53.53,0,0,0,.29-.42V192.49Z"></path><path class="cls-2" d="M218,195.75V365.28a.51.51,0,0,0,.29.42,1.63,1.63,0,0,0,1.43,0,.52.52,0,0,0,.3-.42V196.92Z"></path><path class="cls-2" d="M225.66,200.18V369.71a.51.51,0,0,0,.29.42,1.59,1.59,0,0,0,1.44,0,.53.53,0,0,0,.29-.42V201.35Z"></path><path class="cls-2" d="M233.33,204.61V374.14a.53.53,0,0,0,.29.42,1.63,1.63,0,0,0,1.43,0,.5.5,0,0,0,.3-.42V205.78Z"></path><path class="cls-2" d="M237.09,369.7,90.86,285.28a.48.48,0,0,0-.51.05,1.54,1.54,0,0,0-.71,1.23.52.52,0,0,0,.21.47l147.24,85Z"></path><path class="cls-2" d="M237.09,360.84,90.86,276.42a.48.48,0,0,0-.51.05,1.57,1.57,0,0,0-.71,1.24.5.5,0,0,0,.21.46l147.24,85Z"></path><path class="cls-2" d="M237.09,352,90.86,267.56a.51.51,0,0,0-.51.05,1.6,1.6,0,0,0-.71,1.24.49.49,0,0,0,.21.46l147.24,85Z"></path><path class="cls-2" d="M237.09,343.13,90.86,258.71a.48.48,0,0,0-.51.05,1.57,1.57,0,0,0-.71,1.23.52.52,0,0,0,.21.47l147.24,85Z"></path><path class="cls-2" d="M237.09,334.27,90.86,249.85a.5.5,0,0,0-.51,0,1.61,1.61,0,0,0-.71,1.25.5.5,0,0,0,.21.46l147.24,85Z"></path><path class="cls-2" d="M237.09,325.41,90.86,241a.53.53,0,0,0-.51,0,1.6,1.6,0,0,0-.71,1.24.52.52,0,0,0,.21.47l147.24,85Z"></path><path class="cls-2" d="M237.09,316.56,90.86,232.14a.5.5,0,0,0-.51,0,1.6,1.6,0,0,0-.71,1.24.51.51,0,0,0,.21.47l147.24,85Z"></path><path class="cls-2" d="M237.09,307.7,90.86,223.28a.48.48,0,0,0-.51.05,1.57,1.57,0,0,0-.71,1.24.51.51,0,0,0,.21.46l147.24,85Z"></path><path class="cls-2" d="M237.09,298.84,90.86,214.42a.51.51,0,0,0-.51.05,1.6,1.6,0,0,0-.71,1.24.49.49,0,0,0,.21.46l147.24,85Z"></path><path class="cls-2" d="M237.09,290,90.86,205.57a.48.48,0,0,0-.51.05,1.59,1.59,0,0,0-.71,1.24.5.5,0,0,0,.21.46l147.24,85Z"></path><path class="cls-2" d="M237.09,281.14,90.86,196.71a.53.53,0,0,0-.51,0,1.59,1.59,0,0,0-.71,1.24.52.52,0,0,0,.21.47l147.24,85Z"></path><path class="cls-2" d="M237.09,272.28,90.86,187.85a.53.53,0,0,0-.51.05,1.6,1.6,0,0,0-.71,1.24.51.51,0,0,0,.21.47l147.24,85Z"></path><path class="cls-2" d="M237.09,263.42,90.86,179a.51.51,0,0,0-.51.05,1.57,1.57,0,0,0-.71,1.24.49.49,0,0,0,.21.46l147.24,85Z"></path><path class="cls-2" d="M237.09,254.57,90.86,170.14a.53.53,0,0,0-.51.05,1.6,1.6,0,0,0-.71,1.24.49.49,0,0,0,.21.46l147.24,85Z"></path><path class="cls-2" d="M237.09,245.71,90.86,161.28a.51.51,0,0,0-.51.06,1.57,1.57,0,0,0-.71,1.23.52.52,0,0,0,.21.47l147.24,85Z"></path><path class="cls-2" d="M237.09,236.85,90.86,152.43a.48.48,0,0,0-.51,0,1.57,1.57,0,0,0-.71,1.24.49.49,0,0,0,.21.46l147.24,85Z"></path><path class="cls-2" d="M237.09,228,90.86,143.57a.51.51,0,0,0-.51.05,1.6,1.6,0,0,0-.71,1.24.49.49,0,0,0,.21.46l147.24,85Z"></path><path class="cls-2" d="M237.09,219.14,90.86,134.71a.53.53,0,0,0-.51,0,1.6,1.6,0,0,0-.71,1.24.52.52,0,0,0,.21.47l147.24,85Z"></path><path class="cls-2" d="M237.09,210.28,90.86,125.86a.48.48,0,0,0-.51,0,1.54,1.54,0,0,0-.71,1.23.51.51,0,0,0,.21.47l147.24,85Z"></path><polygon class="cls-2" points="312.47 419.46 314.49 418.36 314.49 258.25 312.47 259.36 300.74 295.38 312.47 419.46"></polygon><polygon class="cls-5" points="312.47 259.36 314.49 258.25 248.76 220.09 246.75 221.21 312.47 259.36"></polygon><polygon class="cls-3" points="246.75 381.37 312.47 419.46 312.47 259.36 246.75 221.21 246.75 381.37"></polygon><polygon class="cls-2" points="262.88 377.77 262.88 382.25 253.37 376.78 253.37 350.26 257.37 352.58 257.37 374.58 262.88 377.77"></polygon><polygon class="cls-6" points="262.88 355.77 262.88 377.77 257.37 374.58 257.37 352.58 262.88 355.77"></polygon><path class="cls-10" d="M287.75,260.66l-32.56-18.8c-1.63-.94-2.94-.19-3,1.69a6.58,6.58,0,0,0,3,5.11l32.56,18.79c1.63.95,2.94.2,3-1.68,0,0,0-.06,0-.09A6.62,6.62,0,0,0,287.75,260.66Z"></path><path class="cls-4" d="M304,270.05l-7.94-4.59c-1.63-.94-2.94-.19-3,1.69a6.55,6.55,0,0,0,3,5.1l7.93,4.6c1.64.94,2.94.19,3-1.69,0,0,0-.06,0-.09A6.65,6.65,0,0,0,304,270.05Z"></path></svg>